<?xml version="1.0" encoding="UTF-8"?>
<svg version="1.1" xmlns="http://www.w3.org/2000/svg" width="512" height="512">
<path d="M0 0 C1.66011511 -0.00678604 3.32022268 -0.01569468 4.98031616 -0.02655029 C9.46391336 -0.04923321 13.9469316 -0.04055317 18.43053818 -0.02465487 C23.13705684 -0.01193851 27.84352808 -0.02375184 32.55004883 -0.03158569 C40.45175008 -0.04066562 48.35321717 -0.02873796 56.25488281 -0.00488281 C65.37208098 0.0223253 74.48871995 0.01350996 83.60590458 -0.01401484 C91.45337977 -0.03675225 99.30068726 -0.0398834 107.14818478 -0.02682149 C111.82655431 -0.01905239 116.50466155 -0.01791509 121.18301392 -0.03450394 C125.58280047 -0.0490171 129.98187066 -0.03880304 134.38158035 -0.01003265 C135.98993367 -0.0034582 137.59834796 -0.00525673 139.20667648 -0.01634598 C148.11521465 -0.07207582 155.99188183 0.14613914 163.41796875 5.64697266 C170.91898715 13.27820136 172.77056265 21.81108026 172.70236206 32.28321838 C172.67900787 33.50677536 172.65565369 34.73033234 172.6315918 35.9909668 C172.61253742 38.00482488 172.59349358 40.0186831 172.574844 42.03254497 C172.55225679 44.18225099 172.52234158 46.33175067 172.49063683 48.48134041 C172.42571035 52.98521747 172.38986343 57.48904602 172.35932922 61.99327087 C172.26872988 74.79649754 172.14988091 87.5991901 171.97924805 100.40161133 C171.88509588 107.48435999 171.82047409 114.56677206 171.7872718 121.6500749 C171.76841781 125.38693175 171.73473539 129.12227685 171.66382408 132.85853767 C171.36870764 148.79168069 171.27070588 162.03899073 180.41796875 175.64697266 C192.93914698 201.83553792 200.39128241 232.15071214 200.65625 261.20166016 C200.66599854 262.09281525 200.67574707 262.98397034 200.68579102 263.90213013 C200.85889286 283.83459123 200.59255099 303.06725581 196.41796875 322.64697266 C196.2360498 323.530625 196.05413086 324.41427734 195.86669922 325.32470703 C189.77478627 354.1782715 177.77092464 392.98876515 155.41796875 413.64697266 C151.22312417 415.04525418 149.45278486 415.15337203 145.48046875 413.20947266 C143.14769824 410.31118203 142.90275567 408.56844004 143.00561523 404.89672852 C143.8036798 400.54257519 146.42909334 397.22241488 148.91796875 393.64697266 C150.03289091 391.96313249 151.14221633 390.27557401 152.24609375 388.58447266 C152.79072266 387.75044922 153.33535156 386.91642578 153.89648438 386.05712891 C157.59976976 380.19082061 160.5495163 373.95341516 163.41796875 367.64697266 C163.75280273 366.91542969 164.08763672 366.18388672 164.43261719 365.43017578 C175.69270231 340.54168715 183.39267386 312.94330145 183.65625 285.49462891 C183.67100876 284.22085892 183.67100876 284.22085892 183.68606567 282.9213562 C184.03923486 244.50468852 179.03229386 206.49443628 159.41796875 172.64697266 C158.56561646 172.99248169 158.56561646 172.99248169 157.69604492 173.3449707 C151.23290359 175.90081749 145.29755386 175.96126842 138.41796875 175.64697266 C139.12373047 177.17064453 139.12373047 177.17064453 139.84375 178.72509766 C150.21020756 201.46800616 152.18996124 223.90466655 143.9765625 247.67041016 C141.21911882 255.0442483 137.58504733 263.0949542 132.3259201 268.99329758 C130.101941 272.08652 129.92010835 273.55002654 129.92590332 277.31280518 C129.91777115 278.44258286 129.90963898 279.57236053 129.90126038 280.7363739 C129.91257492 281.96660782 129.92388947 283.19684174 129.93554688 284.46435547 C129.92954095 286.46454513 129.92353399 288.46473479 129.9174881 290.46492434 C129.91486166 292.61069679 129.92208927 294.75623641 129.93211365 296.90198517 C129.95248885 301.38284151 129.94245538 305.86331718 129.92785645 310.34417725 C129.89884279 320.66943608 129.90953318 330.99458261 129.92055511 341.31986237 C129.9302438 350.77467908 129.93142709 360.22929608 129.90067434 369.68407893 C129.8873486 374.13167568 129.8931928 378.5786979 129.91403961 383.0262599 C129.92088719 385.13167854 129.91857834 387.23685262 129.9122467 389.3422699 C129.90460776 391.8999985 129.91099858 394.45782675 129.93467712 397.01545715 C129.86870843 406.27178337 128.03024005 413.84022279 121.41796875 420.64697266 C115.18829565 425.38694132 109.8084522 426.88513373 102.03564453 426.96582031 C101.32275772 426.97586594 100.60987091 426.98591156 99.87538147 426.9962616 C97.53802233 427.02695278 95.20077698 427.04408911 92.86328125 427.06103516 C91.23516877 427.07975816 89.60706587 427.09933242 87.97897339 427.11972046 C83.70802476 427.17092811 79.43704472 427.21061444 75.16595459 427.24786377 C70.80196431 427.28797491 66.43810346 427.33903473 62.07421875 427.38916016 C53.52222401 427.48578476 44.97016493 427.57023235 36.41796875 427.64697266 C37.51674182 429.39681325 38.61857754 431.14473093 39.72167969 432.8918457 C40.33493103 433.86542526 40.94818237 434.83900482 41.58001709 435.84208679 C44.04022075 439.59658731 46.781774 443.02855187 49.66796875 446.45947266 C50.79267209 447.8193188 51.91634896 449.18001449 53.0390625 450.54150391 C53.59835449 451.21777832 54.15764648 451.89405273 54.73388672 452.59082031 C57.4480916 455.90468426 60.0917898 459.27285992 62.73046875 462.64697266 C63.20452148 463.25259033 63.67857422 463.85820801 64.16699219 464.48217773 C65.25181258 465.86953525 66.33508465 467.25810327 67.41796875 468.64697266 C72.73782166 467.17570083 76.86060157 464.71339287 81.41796875 461.70947266 C82.16199951 461.22220703 82.90603027 460.73494141 83.67260742 460.23291016 C97.70196483 450.91692589 110.43996747 440.02708344 122.11328125 427.88916016 C124.14409175 425.95563399 125.41631282 425.64715665 128.23046875 425.33447266 C132.29737315 425.73318877 133.7709308 426.53281037 136.41796875 429.64697266 C137.14668959 433.83372281 137.389064 436.19333111 134.99609375 439.77539062 C132.92000248 442.08456648 130.7493718 444.21433879 128.48046875 446.33447266 C127.66795654 447.11757813 126.85544434 447.90068359 126.01831055 448.70751953 C118.29967642 456.01747175 110.10592563 462.53556032 101.41796875 468.64697266 C100.77762695 469.10007812 100.13728516 469.55318359 99.47753906 470.02001953 C59.0059427 498.41894496 11.73007444 513.16124829 -37.64453125 512.95947266 C-38.59390564 512.9573175 -39.54328003 512.95516235 -40.52142334 512.95294189 C-54.72978411 512.90120771 -68.61806397 512.49971505 -82.58203125 509.64697266 C-83.55591797 509.45361328 -84.52980469 509.26025391 -85.53320312 509.06103516 C-122.67604077 501.46842986 -158.27505075 485.91148432 -187.58203125 461.64697266 C-188.11779785 461.21126953 -188.65356445 460.77556641 -189.20556641 460.32666016 C-203.7002564 448.51148345 -217.22518069 435.43839419 -228.31689453 420.34765625 C-229.58211105 418.64686538 -230.88651427 416.98397107 -232.203125 415.32275391 C-260.4463558 379.11599314 -279.18867318 327.97181492 -277.58203125 281.64697266 C-278.34386719 281.68177734 -279.10570312 281.71658203 -279.890625 281.75244141 C-289.42476339 282.00240009 -297.16836931 280.80746652 -304.66951942 274.5521698 C-310.81029988 268.43487566 -312.157858 261.13631271 -312.25967407 252.75619507 C-312.24449234 250.89808701 -312.24449234 250.89808701 -312.22900391 249.00244141 C-312.23579422 247.65759097 -312.24470523 246.31274985 -312.2555542 244.96792603 C-312.27818719 241.34375973 -312.26957864 237.7203117 -312.25365877 234.09613419 C-312.24091589 230.28648325 -312.252763 226.47688993 -312.2605896 222.66723633 C-312.26966195 216.27202419 -312.25776211 209.87710166 -312.23388672 203.48193359 C-312.20667979 196.1097006 -312.21549569 188.73815921 -312.24301875 181.36594296 C-312.26577811 175.01313619 -312.26887675 168.66053647 -312.2558254 162.30770206 C-312.24806816 158.52357221 -312.24688545 154.73976642 -312.26350784 150.95565796 C-312.2780536 147.39628431 -312.26775 143.83779402 -312.23903656 140.27851486 C-312.22937469 138.36493868 -312.24403946 136.45128694 -312.25967407 134.53775024 C-312.15788376 126.1597528 -310.81686665 118.83471366 -304.65096474 112.73738098 C-297.08099885 106.37859217 -288.435484 105.14867583 -278.83203125 105.27197266 C-277.91292969 105.26037109 -276.99382812 105.24876953 -276.046875 105.23681641 C-271.11652114 105.25822171 -267.53552451 105.35239494 -263.58203125 108.64697266 C-262.15540906 111.50021703 -262.27169257 113.48151815 -262.58203125 116.64697266 C-263.953125 119.30322266 -263.953125 119.30322266 -266.58203125 121.64697266 C-270.03307039 122.37086783 -273.4405344 122.34651545 -276.95703125 122.33447266 C-285.58378998 122.08423978 -285.58378998 122.08423978 -293.58203125 124.64697266 C-296.08093066 130.87853828 -295.87132662 137.07649566 -295.85668945 143.71337891 C-295.86180038 144.91259979 -295.86691132 146.11182068 -295.87217712 147.34738159 C-295.88365835 150.62010767 -295.88615283 153.89267589 -295.88361382 157.16541672 C-295.88254025 159.90394923 -295.88743718 162.64245867 -295.89221925 165.38098621 C-295.90329261 171.84368955 -295.90376367 178.30633475 -295.89770508 184.76904297 C-295.89166231 191.42368835 -295.90398883 198.07812247 -295.92527515 204.73273182 C-295.9429161 210.4594879 -295.94888871 216.18617686 -295.9456374 221.9129591 C-295.94382885 225.32753948 -295.94641799 228.74196902 -295.96035194 232.15652466 C-295.97269267 235.96470418 -295.96593853 239.77239467 -295.9543457 243.58056641 C-295.96198944 244.70389374 -295.96963318 245.82722107 -295.97750854 246.98458862 C-295.93763711 252.91252423 -295.76201769 257.54463195 -292.58203125 262.64697266 C-288.78710763 265.04181015 -285.03103015 264.89781868 -280.6237793 264.90234375 C-279.943396 264.9059642 -279.2630127 264.90958466 -278.56201172 264.91331482 C-277.09101892 264.92018421 -275.62000076 264.92271888 -274.14899254 264.92136765 C-271.81487853 264.92039816 -269.48121972 264.93339483 -267.14717102 264.9503479 C-260.51327031 264.9964871 -253.87941709 265.02121122 -247.24536133 265.02783203 C-243.18045468 265.03286591 -239.11602407 265.05720999 -235.05127907 265.09315872 C-233.50886718 265.10291328 -231.96638945 265.10531252 -230.42395592 265.09998703 C-215.55533261 265.05106421 -215.55533261 265.05106421 -208.58203125 269.64697266 C-207.83131348 270.12255615 -207.0805957 270.59813965 -206.30712891 271.08813477 C-205.7094873 271.52907471 -205.1118457 271.97001465 -204.49609375 272.42431641 C-203.80169189 272.9315625 -203.10729004 273.43880859 -202.3918457 273.96142578 C-201.67085693 274.49703125 -200.94986816 275.03263672 -200.20703125 275.58447266 C-198.63032898 276.73958528 -197.05350227 277.89452804 -195.4765625 279.04931641 C-194.67299316 279.64083496 -193.86942383 280.23235352 -193.04150391 280.84179688 C-189.00986959 283.80089 -184.95132067 286.72251694 -180.89453125 289.64697266 C-179.45311824 290.68862997 -178.01171168 291.73029621 -176.5703125 292.77197266 C-172.91636494 295.40940849 -169.25128851 298.0308836 -165.58203125 300.64697266 C-165.58372314 299.71800171 -165.58372314 299.71800171 -165.58544922 298.77026367 C-165.57321005 295.91561104 -165.51538919 293.06354054 -165.45703125 290.20947266 C-165.45960938 289.23558594 -165.4621875 288.26169922 -165.46484375 287.25830078 C-165.27019988 279.98348632 -163.69835475 274.95769276 -158.58203125 269.64697266 C-152.82899066 265.05430846 -146.48296757 265.08923319 -139.39453125 265.08447266 C-130.88811265 265.37965926 -130.88811265 265.37965926 -123.58203125 261.64697266 C-121.61150635 258.48140265 -121.32946437 256.03789216 -121.32133484 252.34022522 C-121.31425003 251.26494064 -121.30716522 250.18965607 -121.29986572 249.08178711 C-121.30234314 247.90712891 -121.30482056 246.7324707 -121.30737305 245.5222168 C-121.30226212 244.28120712 -121.29715118 243.04019745 -121.29188538 241.76158142 C-121.28036563 238.36068419 -121.27791599 234.96003065 -121.28044868 231.55913091 C-121.28151879 228.71866221 -121.27663399 225.87821597 -121.27184325 223.03775209 C-121.26075015 216.33594197 -121.26030955 209.6341879 -121.26635742 202.93237305 C-121.27239805 196.02156868 -121.26008362 189.11096787 -121.23878735 182.20019823 C-121.22116715 176.26376965 -121.21517064 170.32740582 -121.2184251 164.39095205 C-121.22023743 160.84672507 -121.21760686 157.3026433 -121.20371056 153.75844002 C-121.188793 149.80591986 -121.19810606 145.85365863 -121.2097168 141.90112305 C-121.20207306 140.72848907 -121.19442932 139.5558551 -121.18655396 138.34768677 C-121.19356827 137.26958237 -121.20058258 136.19147797 -121.20780945 135.08070374 C-121.20764171 134.14659196 -121.20747396 133.21248018 -121.20730114 132.25006199 C-121.66779711 129.05119404 -122.63875526 127.21914826 -124.58203125 124.64697266 C-127.46963224 122.671078 -129.79567031 122.39803532 -133.25012207 122.40214539 C-134.18381119 122.3982077 -135.11750031 122.39427002 -136.07948303 122.39021301 C-137.60538307 122.39875557 -137.60538307 122.39875557 -139.16210938 122.4074707 C-140.23891464 122.40545654 -141.31571991 122.40344238 -142.42515564 122.40136719 C-144.7632471 122.39782155 -147.10134815 122.39858893 -149.43943787 122.40314293 C-153.13751315 122.408728 -156.83527385 122.39959115 -160.5333252 122.38594055 C-171.04746566 122.34877259 -181.5614911 122.33029574 -192.07568359 122.34155273 C-198.50599127 122.34739415 -204.93585619 122.3291908 -211.36607361 122.29566383 C-213.81891137 122.28769402 -216.27179718 122.28900805 -218.72462463 122.29968834 C-222.15089308 122.31396732 -225.57576253 122.29779353 -229.00195312 122.2746582 C-230.01921982 122.28642593 -231.03648651 122.29819366 -232.08457947 122.31031799 C-238.94093709 122.21928198 -238.94093709 122.21928198 -242.21203613 119.29914856 C-243.88651542 116.05752122 -244.19461999 114.24593149 -243.58203125 110.64697266 C-241.71493215 108.34421709 -240.22555384 106.96873395 -237.58203125 105.64697266 C-235.50834942 105.59978068 -233.4332586 105.60968674 -231.359375 105.64697266 C-229.41804917 105.64498867 -227.47672255 105.64293383 -225.53540039 105.63867188 C-223.55129749 105.64684185 -221.56749353 105.69541032 -219.58398438 105.74462891 C-212.69884085 105.68175088 -208.45478838 105.38608906 -203.4765625 100.36181641 C-202.15975858 98.80577541 -200.85907538 97.23580695 -199.58203125 95.64697266 C-196.0240812 92.50673774 -192.30852665 89.58450298 -188.58203125 86.64697266 C-187.58300781 85.84259766 -186.58398438 85.03822266 -185.5546875 84.20947266 C-151.44951915 57.03308342 -110.47296706 41.61605889 -67.58203125 35.64697266 C-66.83203857 35.54022217 -66.0820459 35.43347168 -65.30932617 35.32348633 C-59.04548104 34.52176483 -52.82669629 34.53274197 -46.51953125 34.58447266 C-45.46314453 34.58898438 -44.40675781 34.59349609 -43.31835938 34.59814453 C-40.73952217 34.60981348 -38.16080831 34.6261838 -35.58203125 34.64697266 C-35.62880005 33.40403442 -35.62880005 33.40403442 -35.67651367 32.13598633 C-35.97637711 22.70170009 -34.68678918 14.95219771 -28.47575378 7.55948448 C-20.58151612 -0.41307888 -10.48102076 -0.07226546 0 0 Z M-16.58203125 18.64697266 C-19.48939211 22.85246731 -19.95514352 26.29772002 -19.95092773 31.33911133 C-19.95781113 32.6503447 -19.96469452 33.96157806 -19.9717865 35.31254578 C-19.96860853 36.00555975 -19.96543056 36.69857372 -19.9621563 37.41258812 C-19.95300176 39.59431155 -19.96331588 41.77518379 -19.97877502 43.9568634 C-20.0187711 50.15523074 -20.02007001 56.35352697 -20.01782227 62.55200195 C-20.01777123 66.35218509 -20.03689638 70.15190372 -20.06715584 73.95195961 C-20.07799179 76.10102271 -20.06584998 78.24920426 -20.05332947 80.39823914 C-20.06336502 81.70001602 -20.07340057 83.00179291 -20.08374023 84.34301758 C-20.08357407 85.49074142 -20.0834079 86.63846527 -20.08323669 87.82096863 C-20.58203125 90.64697266 -20.58203125 90.64697266 -22.42176819 92.51753235 C-25.34215444 94.04438433 -27.33308828 94.06173133 -30.58203125 93.64697266 C-32.6187074 92.10190799 -33.44276203 90.92551109 -34.58203125 88.64697266 C-34.73909456 85.8048924 -34.84052695 82.98359959 -34.8984375 80.13916016 C-34.9192186 79.29854034 -34.93999969 78.45792053 -34.96141052 77.59182739 C-35.02688564 74.90196031 -35.08578145 72.21199423 -35.14453125 69.52197266 C-35.18771841 67.70034776 -35.23133277 65.87873295 -35.27539062 64.05712891 C-35.38256493 59.58717872 -35.4838381 55.11712879 -35.58203125 50.64697266 C-61.71361567 50.04463982 -87.98816757 53.35941654 -112.58203125 62.64697266 C-111.03169383 65.90802723 -109.17939202 68.89776681 -107.26953125 71.95947266 C-98.42801646 87.13740638 -94.48573226 105.08780673 -97.87257385 122.4753418 C-98.76159264 125.19660544 -100.15119434 127.4301583 -101.58959961 129.90478516 C-105.36214686 137.36710036 -105.54700142 144.50171631 -105.5546875 152.66650391 C-105.57147566 154.17959198 -105.58927168 155.69266916 -105.60801697 157.20573425 C-105.63918296 160.35334418 -105.64660938 163.49996186 -105.63891602 166.64770508 C-105.63268062 170.66881977 -105.70464224 174.68443394 -105.79634953 178.70435047 C-105.85568941 181.81968873 -105.86454232 184.93369776 -105.85931206 188.04953575 C-105.86451805 189.53156948 -105.88726505 191.01365631 -105.92845345 192.49512672 C-106.04261642 197.05494801 -105.9535281 201.24655331 -104.58203125 205.64697266 C-98.85636773 211.60529453 -90.35673677 214.30322026 -82.58203125 216.64697266 C-81.98003906 216.83775391 -81.37804687 217.02853516 -80.7578125 217.22509766 C-68.2941503 219.64175029 -55.43976858 217.70916882 -44.73828125 210.81494141 C-42.20140093 208.87789574 -39.88314527 206.85736175 -37.58203125 204.64697266 C-36.92460937 204.01791016 -36.2671875 203.38884766 -35.58984375 202.74072266 C-28.00193286 194.79458421 -24.53493295 184.67462273 -23.08203125 173.95947266 C-23.25561276 170.41172103 -23.25561276 170.41172103 -26.33203125 168.20947266 C-26.87730469 167.81888672 -27.42257812 167.42830078 -27.984375 167.02587891 C-32.13837463 163.44064207 -33.72827691 157.89242851 -34.58203125 152.64697266 C-34.68610885 150.11535069 -34.74587845 147.61196368 -34.75 145.08056641 C-34.7549926 144.00670433 -34.7549926 144.00670433 -34.76008606 142.91114807 C-34.76512893 141.40423217 -34.7674952 139.89730519 -34.76733398 138.39038086 C-34.76952755 136.08835552 -34.78772998 133.78680443 -34.80664062 131.48486328 C-34.80957372 130.01676595 -34.81155908 128.54866636 -34.8125 127.08056641 C-34.81968552 126.3950621 -34.82687103 125.7095578 -34.83427429 125.00328064 C-34.81708053 121.40291796 -34.67010711 118.65124975 -32.58203125 115.64697266 C-29.77287651 114.24239529 -27.69392591 114.39802108 -24.58203125 114.64697266 C-22.41601562 115.69262695 -22.41601562 115.69262695 -20.58203125 117.64697266 C-20.20362665 120.28757032 -20.07118489 122.52830957 -20.11328125 125.16650391 C-20.10623169 125.90269455 -20.09918213 126.63888519 -20.09191895 127.39738464 C-20.06245137 130.54269445 -20.07901311 133.6873851 -20.09130859 136.83276367 C-20.09369977 139.13188224 -20.0727103 141.43000881 -20.05078125 143.72900391 C-20.06210083 144.43233353 -20.07342041 145.13566315 -20.08508301 145.86030579 C-20.03377971 150.91364293 -18.82871649 153.80170659 -15.58203125 157.64697266 C-12.63671028 159.70603188 -10.20713411 159.89552616 -6.66015625 159.92041016 C-5.7165625 159.94103516 -4.77296875 159.96166016 -3.80078125 159.98291016 C-1.83732493 160.00874511 0.12624554 160.02709713 2.08984375 160.03759766 C8.35529572 160.19082882 13.22533632 160.96811913 18.41796875 164.64697266 C20.2578125 166.61181641 20.2578125 166.61181641 21.35546875 168.58447266 C21.92587891 169.55707031 21.92587891 169.55707031 22.5078125 170.54931641 C24.70531108 175.61393759 24.70249919 181.02311713 24.98046875 186.45947266 C25.02365234 187.24773437 25.06683594 188.03599609 25.11132812 188.84814453 C25.21675196 190.78091481 25.31779969 192.71392292 25.41796875 194.64697266 C30.2999246 193.07275273 33.85742951 190.24490953 37.85546875 187.14697266 C39.28414894 186.05710926 40.71385556 184.96859021 42.14453125 183.88134766 C42.8602832 183.33671875 43.57603516 182.79208984 44.31347656 182.23095703 C47.97774832 179.47297615 51.71553092 176.82082036 55.46069336 174.17431641 C60.01523835 170.95301691 64.48158828 167.62346276 68.91796875 164.24072266 C73.9583026 161.02750983 78.61942842 160.39764261 84.52148438 160.39160156 C85.54709724 160.38617088 85.54709724 160.38617088 86.59342957 160.38063049 C88.06822889 160.37377231 89.54305339 160.3712243 91.01786804 160.37257767 C93.35571268 160.37354823 95.69310424 160.36053964 98.03088379 160.34359741 C104.67403719 160.29747797 111.31714104 160.27271649 117.96044922 160.26611328 C122.03298403 160.26109063 126.10504112 160.23680866 130.17741394 160.20078659 C131.7242699 160.19101137 133.27119174 160.18864421 134.81806946 160.19395828 C136.98404852 160.20105271 139.14860813 160.1837025 141.31445312 160.16113281 C142.5443396 160.15828278 143.77422607 160.15543274 145.04138184 160.15249634 C149.14627086 159.53793534 151.2672365 158.32684524 154.41796875 155.64697266 C156.18313033 152.1075122 156.66986348 149.23325873 156.67866516 145.30262756 C156.68574997 144.24424179 156.69283478 143.18585602 156.70013428 142.09539795 C156.69641815 140.36921234 156.69641815 140.36921234 156.69262695 138.6081543 C156.69773788 137.38811203 156.70284882 136.16806976 156.70811462 134.91105652 C156.71962174 131.57213124 156.72208605 128.23345445 156.71955132 124.89452672 C156.71848 122.10380854 156.72336908 119.31311314 156.72815675 116.52239984 C156.73924351 109.93703496 156.73969398 103.35172712 156.73364258 96.76635742 C156.7276022 89.97995078 156.73991719 83.19375144 156.76121265 76.40738016 C156.77884338 70.57367479 156.78482771 64.74003532 156.7815749 58.9063043 C156.77976429 55.42521649 156.78237591 51.94427658 156.79628944 48.46321297 C156.81122853 44.58045476 156.80188475 40.69795949 156.7902832 36.81518555 C156.79792694 35.66641937 156.80557068 34.5176532 156.81344604 33.33407593 C156.86683887 25.49002097 156.86683887 25.49002097 153.41796875 18.64697266 C146.8843057 14.24945428 139.01111434 15.22481507 131.4140625 15.25878906 C129.88745753 15.25472005 128.36085551 15.24937632 126.83425903 15.24285889 C122.70203003 15.22921864 118.57002652 15.23447026 114.43779373 15.24399614 C110.10622821 15.25160984 105.77468154 15.24454239 101.44311523 15.23983765 C94.1700495 15.23438507 86.89707527 15.24155862 79.62402344 15.25585938 C71.22437552 15.27218495 62.82494609 15.26689609 54.42530346 15.25038016 C47.20386229 15.23675109 39.98248676 15.23485257 32.76103687 15.24269617 C28.45221693 15.24736488 24.14349957 15.24801965 19.83468628 15.2380867 C15.78311854 15.2293986 11.73183156 15.23547242 7.68029404 15.25276947 C6.19645528 15.2567245 4.71259277 15.25561715 3.22876358 15.24898148 C-7.18938236 14.91403191 -7.18938236 14.91403191 -16.58203125 18.64697266 Z M-165.58203125 89.64697266 C-166.23848633 90.12199219 -166.89494141 90.59701172 -167.57128906 91.08642578 C-169.76994075 92.67988057 -171.95909472 94.28544738 -174.14453125 95.89697266 C-174.83667725 96.40486328 -175.52882324 96.91275391 -176.24194336 97.43603516 C-177.21659546 98.16693359 -177.21659546 98.16693359 -178.2109375 98.91259766 C-179.07827515 99.55890137 -179.07827515 99.55890137 -179.96313477 100.21826172 C-181.81175708 101.84971063 -183.12889554 103.66207357 -184.58203125 105.64697266 C-183.89013702 105.6528389 -183.1982428 105.65870514 -182.48538208 105.66474915 C-175.92488257 105.72295456 -169.36469924 105.79518719 -162.80452156 105.88268757 C-159.43285699 105.92717757 -156.06130731 105.96647859 -152.68945312 105.9934082 C-148.80179155 106.0271453 -144.91474411 106.07947284 -141.02734375 106.13525391 C-139.2345549 106.14483879 -139.2345549 106.14483879 -137.4055481 106.15461731 C-128.43179517 106.31037283 -120.10381007 107.38172748 -112.58203125 112.64697266 C-111.61245567 97.69934918 -116.30613062 84.05319074 -125.83203125 72.45947266 C-127.19328125 71.06728516 -127.19328125 71.06728516 -128.58203125 69.64697266 C-139.75037915 69.64697266 -156.6424018 83.08005987 -165.58203125 89.64697266 Z M-7.58203125 175.64697266 C-7.80117188 176.73494141 -8.0203125 177.82291016 -8.24609375 178.94384766 C-12.04321266 196.89460945 -19.59324473 211.45643449 -34.58203125 222.64697266 C-39.12476046 225.3662862 -43.70823368 227.58691389 -48.58203125 229.64697266 C-49.42894531 230.00919922 -50.27585937 230.37142578 -51.1484375 230.74462891 C-69.23395093 236.98601797 -87.81545798 231.85648708 -104.58203125 224.64697266 C-104.59661377 225.66009521 -104.61119629 226.67321777 -104.6262207 227.71704102 C-104.68465553 231.51376796 -104.76188098 235.30992952 -104.84448242 239.10620117 C-104.877521 240.7421748 -104.90561695 242.37825664 -104.9284668 244.0144043 C-105.24377874 265.99902656 -105.24377874 265.99902656 -112.83984375 274.14306641 C-118.52477306 279.05046054 -125.03989315 280.65098987 -132.41015625 280.92822266 C-133.291875 280.96560547 -134.17359375 281.00298828 -135.08203125 281.04150391 C-136.93096673 281.11241478 -138.77992564 281.18271728 -140.62890625 281.25244141 C-141.50546875 281.28982422 -142.38203125 281.32720703 -143.28515625 281.36572266 C-144.08598633 281.39601563 -144.88681641 281.42630859 -145.71191406 281.45751953 C-147.59500978 281.44920552 -147.59500978 281.44920552 -148.58203125 282.64697266 C-148.71560936 284.34422253 -148.78551131 286.04657032 -148.828125 287.74853516 C-148.87743164 289.32054687 -148.87743164 289.32054687 -148.92773438 290.92431641 C-148.98828722 293.13256272 -149.04564924 295.34089916 -149.09960938 297.54931641 C-149.55826578 311.72439546 -149.55826578 311.72439546 -154.08203125 316.02197266 C-158.20748683 318.70351879 -161.69524906 319.35471352 -166.58203125 318.64697266 C-171.85919411 316.44315749 -176.2590927 313.14389711 -180.83203125 309.77197266 C-182.43219649 308.60387352 -184.03245979 307.43590869 -185.6328125 306.26806641 C-186.44959473 305.66978027 -187.26637695 305.07149414 -188.10791016 304.45507812 C-192.06514742 301.5631007 -196.0430758 298.69993467 -200.01953125 295.83447266 C-201.41429847 294.82828926 -202.80883349 293.82178391 -204.203125 292.81494141 C-204.9154126 292.31978027 -205.6277002 291.82461914 -206.36157227 291.31445312 C-208.58203125 289.64697266 -208.58203125 289.64697266 -210.80053711 287.49902344 C-219.84231773 279.38913549 -229.84415911 280.74100955 -241.26953125 281.14697266 C-243.24276598 281.18716668 -245.21607982 281.22365697 -247.18945312 281.25634766 C-251.98895682 281.34384109 -256.78460853 281.48151137 -261.58203125 281.64697266 C-261.81828909 289.73526983 -261.16583512 297.46500213 -259.95703125 305.45947266 C-259.77954346 306.63509766 -259.60205566 307.81072266 -259.41918945 309.02197266 C-256.17775644 329.37547652 -249.80771113 348.78506621 -241.58203125 367.64697266 C-237.76444684 365.88937191 -234.33318897 363.57534126 -230.83203125 361.27197266 C-219.56305577 353.95209135 -207.92491002 347.76863489 -194.01953125 350.20947266 C-186.43850581 352.26717956 -180.48487015 356.29956911 -175.45703125 362.27197266 C-169.41301642 369.42145342 -163.02115653 371.34010368 -153.8203125 372.51806641 C-145.18796591 372.8616942 -137.32324666 368.80787036 -130.58203125 363.64697266 C-128.42794173 361.33573426 -126.41904724 358.93868132 -124.39453125 356.51416016 C-122.58203125 354.64697266 -122.58203125 354.64697266 -119.33203125 353.45947266 C-116.49269731 353.65306361 -114.90226951 354.0142124 -112.58203125 355.64697266 C-110.94480853 358.9214181 -111.1186937 360.99818942 -111.58203125 364.64697266 C-116.75921213 374.2445372 -126.79785519 381.31161651 -136.9296875 384.89697266 C-150.64778411 388.77602207 -163.64590929 387.81184328 -176.58203125 381.64697266 C-181.72789085 378.56481717 -185.44292716 374.79267602 -189.22265625 370.18994141 C-191.97720602 367.06336911 -194.77847811 365.8880386 -198.70703125 364.70947266 C-211.5640202 364.50210187 -222.92722926 374.09464903 -232.58203125 381.64697266 C-232.01488298 385.48560846 -230.94764495 388.04687939 -228.80859375 391.27197266 C-228.2364917 392.13717529 -227.66438965 393.00237793 -227.07495117 393.89379883 C-226.4585376 394.80234619 -225.84212402 395.71089355 -225.20703125 396.64697266 C-224.57579346 397.58452393 -223.94455566 398.5220752 -223.29418945 399.48803711 C-218.17220245 406.99231359 -212.67007436 413.91609269 -206.58203125 420.64697266 C-205.42960937 421.96181641 -205.42960937 421.96181641 -204.25390625 423.30322266 C-195.74951052 432.93757306 -186.79943046 441.8328001 -176.58203125 449.64697266 C-175.93733887 450.14100586 -175.29264648 450.63503906 -174.62841797 451.14404297 C-163.79604449 459.37033815 -152.68548138 466.44821579 -140.58203125 472.64697266 C-139.83904785 473.03336914 -139.09606445 473.41976563 -138.33056641 473.81787109 C-118.19150581 484.19847135 -96.8238658 490.59185574 -74.58203125 494.64697266 C-73.89383301 494.77297852 -73.20563477 494.89898437 -72.49658203 495.02880859 C-34.53845389 501.67567229 18.85051142 499.15275856 52.41796875 477.64697266 C50.92868473 474.31887877 49.01604084 471.80258434 46.66796875 469.02197266 C42.38676769 463.86364748 38.22540631 458.62247807 34.10546875 453.33447266 C33.50702148 452.56989746 32.90857422 451.80532227 32.29199219 451.01757812 C29.1599871 446.99033718 26.18014379 442.9368692 23.41796875 438.64697266 C18.21725221 440.2876749 14.24144712 443.50237686 9.91796875 446.70947266 C8.3145226 447.88363432 6.71035015 449.05680476 5.10546875 450.22900391 C4.31527344 450.80730957 3.52507812 451.38561523 2.7109375 451.98144531 C-0.5232633 454.33064866 -3.79357923 456.62454611 -7.08203125 458.89697266 C-8.6134375 459.95658203 -8.6134375 459.95658203 -10.17578125 461.03759766 C-14.90956696 464.20370109 -18.97139905 464.26655167 -24.58203125 463.64697266 C-28.08226826 461.95935838 -29.96808078 460.87130719 -31.71679688 457.3840332 C-32.68544986 454.31982085 -32.86864549 451.75218891 -32.92578125 448.54150391 C-32.95542969 447.39359375 -32.98507812 446.24568359 -33.015625 445.06298828 C-33.06011172 442.64892975 -33.10438046 440.23486719 -33.1484375 437.82080078 C-33.17808594 436.67675781 -33.20773437 435.53271484 -33.23828125 434.35400391 C-33.25697266 433.30704346 -33.27566406 432.26008301 -33.29492188 431.18139648 C-33.33449924 428.4791593 -33.33449924 428.4791593 -35.58203125 426.64697266 C-37.76074131 426.34209618 -37.76074131 426.34209618 -40.2734375 426.37353516 C-41.21896484 426.35291016 -42.16449219 426.33228516 -43.13867188 426.31103516 C-45.11515155 426.28534991 -47.09174104 426.26691075 -49.06835938 426.25634766 C-56.99039236 426.06377967 -62.56845957 424.01862865 -69.33203125 420.02197266 C-75.7933601 413.20168109 -77.32132934 405.61110503 -77.24145508 396.50585938 C-77.25193878 395.44125992 -77.26242249 394.37666046 -77.27322388 393.27980042 C-77.30180063 389.79511749 -77.29570239 386.31143844 -77.2890625 382.82666016 C-77.30218797 380.39713303 -77.31749478 377.9676168 -77.33488464 375.53811646 C-77.37464748 369.16937473 -77.38491956 362.80091907 -77.38891602 356.43206787 C-77.39826376 349.92288585 -77.4356877 343.41387075 -77.47070312 336.90478516 C-77.53519045 324.15219584 -77.56945788 311.39971348 -77.58203125 298.64697266 C-85.99740657 302.64178602 -90.33398411 310.19534936 -93.5625 318.63916016 C-94.78784985 322.25417697 -95.87281849 325.88781309 -96.80859375 329.58837891 C-97.69642961 331.95145718 -98.61635308 333.08019739 -100.58203125 334.64697266 C-103.76764452 335.52809973 -105.75026973 335.93921319 -108.89453125 334.83447266 C-110.58203125 333.64697266 -110.58203125 333.64697266 -111.58203125 331.64697266 C-112.22730069 318.82574935 -105.75809784 304.16537853 -97.58203125 294.64697266 C-96.98777344 293.94314453 -96.39351562 293.23931641 -95.78125 292.51416016 C-91.95016059 288.34200068 -88.28331216 285.91388613 -83.20703125 283.39697266 C-78.81515159 281.05159552 -78.81515159 281.05159552 -76.546875 276.82275391 C-76.27917252 274.75130854 -76.06918909 272.67156947 -75.91796875 270.58837891 C-75.2756179 264.96407433 -72.16017116 261.18358257 -68.20703125 257.33447266 C-61.84776577 253.24637342 -56.85981667 252.20169384 -49.43383789 252.21459961 C-48.54524078 252.20440796 -47.65664368 252.19421631 -46.74111938 252.18371582 C-43.82474373 252.15369262 -40.90869711 252.14433621 -37.9921875 252.13525391 C-35.96193866 252.11839931 -33.9317002 252.10024802 -31.901474 252.08085632 C-26.57342779 252.03343507 -21.2454237 252.00357471 -15.91723633 251.97741699 C-10.4740365 251.94757177 -5.03098167 251.90105503 0.41210938 251.85595703 C11.0806532 251.77001347 21.74922693 251.70262835 32.41796875 251.64697266 C32.53841553 250.91164307 32.6588623 250.17631348 32.78295898 249.41870117 C32.94997314 248.44344482 33.1169873 247.46818848 33.2890625 246.46337891 C33.53160767 245.02007202 33.53160767 245.02007202 33.77905273 243.54760742 C35.64228543 235.08865912 40.32191267 229.39422104 46.140625 223.21728516 C54.487546 213.79657501 59.89227373 203.23736849 60.41796875 190.64697266 C55.09609694 193.53224168 50.38757818 196.82230994 45.60546875 200.52197266 C28.22078953 213.67492071 28.22078953 213.67492071 20.4609375 213.11181641 C15.74644119 212.03911074 13.02868801 209.56305155 10.41796875 205.64697266 C10.14672852 202.87548828 10.14672852 202.87548828 10.109375 199.55322266 C10.07166992 197.76078125 10.07166992 197.76078125 10.03320312 195.93212891 C9.99804759 193.40874279 9.96679737 190.88529925 9.93945312 188.36181641 C9.89981445 186.569375 9.89981445 186.569375 9.859375 184.74072266 C9.84592041 183.644375 9.83246582 182.54802734 9.81860352 181.41845703 C9.63313762 178.65160106 9.63313762 178.65160106 8.10009766 176.78442383 C5.30099681 174.89167915 2.53202103 175.36860424 -0.76953125 175.45947266 C-2.04183594 175.48654297 -3.31414062 175.51361328 -4.625 175.54150391 C-5.60082031 175.57630859 -6.57664062 175.61111328 -7.58203125 175.64697266 Z M78.41796875 176.64697266 C78.00819714 179.06007216 77.71403911 181.40310307 77.48046875 183.83447266 C74.96977404 206.19292243 68.00428333 223.21768216 52.265625 239.42822266 C48.96173392 243.39568594 48.31730228 246.59151287 48.41796875 251.64697266 C49.5564325 251.6524411 49.5564325 251.6524411 50.71789551 251.65802002 C57.89716493 251.69600628 65.07592149 251.75297811 72.25485992 251.8308754 C75.94498888 251.87025742 79.63488253 251.9024908 83.32519531 251.91796875 C86.89166458 251.9331973 90.45748656 251.96775018 94.02366638 252.01528168 C96.03524913 252.03717355 98.04701483 252.03944105 100.05871582 252.0413208 C107.38876417 252.15781999 112.1179554 252.89126737 118.41796875 256.64697266 C119.40796875 256.64697266 120.39796875 256.64697266 121.41796875 256.64697266 C131.65956226 237.71728577 136.21854156 219.35876345 130.44921875 198.07275391 C129.27285034 194.46019012 128.09277197 191.04904184 126.41796875 187.64697266 C125.99467285 186.63320557 125.57137695 185.61943848 125.13525391 184.57495117 C123.22813637 180.83444913 121.61366157 178.39353234 118.41796875 175.64697266 C112.2257952 173.66134376 105.43479866 174.47766724 99.04296875 174.83447266 C97.26577526 174.88615221 95.48841594 174.93242768 93.7109375 174.97314453 C85.82511112 174.78211801 85.82511112 174.78211801 78.41796875 176.64697266 Z M-60.58203125 271.64697266 C-61.85338955 274.18968926 -61.71936259 275.97945188 -61.7359314 278.82710266 C-61.74453186 279.92488037 -61.75313232 281.02265808 -61.76199341 282.15370178 C-61.76625336 283.36360275 -61.77051331 284.57350372 -61.77490234 285.82006836 C-61.78307983 287.09004669 -61.79125732 288.36002502 -61.79968262 289.66848755 C-61.82590543 293.88655473 -61.84121028 298.10463186 -61.85546875 302.32275391 C-61.86082828 303.77446181 -61.86620579 305.22616965 -61.8716011 306.67787743 C-61.89323002 312.71624675 -61.91196702 318.7546134 -61.9232235 324.79301167 C-61.93946485 333.44873787 -61.97264633 342.10401531 -62.02962434 350.75957233 C-62.06831604 356.84456622 -62.08785522 362.92944004 -62.09314406 369.01455373 C-62.09679861 372.64950205 -62.10882953 376.28397178 -62.1412468 379.918787 C-62.17690102 383.97469423 -62.17295866 388.02963626 -62.16552734 392.08569336 C-62.18193268 393.28952164 -62.19833801 394.49334991 -62.21524048 395.73365784 C-62.37132165 402.37503216 -62.37132165 402.37503216 -59.17056274 407.86955261 C-55.79539594 410.18711728 -54.10566697 410.77139158 -50.07421875 410.85791016 C-49.16929687 410.88626953 -48.264375 410.91462891 -47.33203125 410.94384766 C-45.43898335 410.99528918 -43.54573056 411.03974175 -41.65234375 411.07666016 C-35.43426515 411.28744248 -28.95981739 411.66542682 -24.05859375 415.99169922 C-20.11181399 420.46034364 -18.38478084 424.83894202 -18.16796875 430.72900391 C-18.12929688 431.66035156 -18.090625 432.59169922 -18.05078125 433.55126953 C-18.01984375 434.51097656 -17.98890625 435.47068359 -17.95703125 436.45947266 C-17.91835938 437.43851563 -17.8796875 438.41755859 -17.83984375 439.42626953 C-17.74592309 441.8329864 -17.66024924 444.23970278 -17.58203125 446.64697266 C-12.44025966 443.84477323 -7.8396813 440.71810777 -3.20703125 437.14697266 C5.18703436 430.76498627 13.7592995 424.66342319 22.41796875 418.64697266 C23.38476562 417.97021484 24.3515625 417.29345703 25.34765625 416.59619141 C26.13398438 416.05607422 26.9203125 415.51595703 27.73046875 414.95947266 C28.36597656 414.52248047 29.00148438 414.08548828 29.65625 413.63525391 C33.69666288 411.36868083 37.75476706 411.51317294 42.31030273 411.48925781 C42.99535889 411.48417709 43.68041504 411.47909637 44.38623047 411.47386169 C45.8697985 411.46318496 47.35338237 411.45455427 48.83697319 411.44774246 C51.18689673 411.43592028 53.53663924 411.41646011 55.88648987 411.3946228 C62.5662737 411.33311067 69.24603671 411.27894903 75.92602539 411.24560547 C80.0156635 411.22464464 84.10496726 411.18933453 88.19441414 411.14484787 C89.75045904 411.13070351 91.30656304 411.12196896 92.86266899 411.11879349 C95.04088155 411.11387691 97.21820817 411.09070276 99.39624023 411.06347656 C100.63437973 411.05538971 101.87251923 411.04730286 103.1481781 411.03897095 C106.73679944 410.60874969 108.59216878 409.87536872 111.41796875 407.64697266 C113.41523475 404.48493546 113.67058495 402.00652083 113.67866516 398.30226135 C113.68574997 397.21856262 113.69283478 396.13486389 113.70013428 395.01832581 C113.69765686 393.83431686 113.69517944 392.65030792 113.69262695 391.43041992 C113.69773788 390.17965668 113.70284882 388.92889343 113.70811462 387.64022827 C113.71963473 384.21247302 113.72208395 380.78495956 113.71955132 377.35720181 C113.71848124 374.49436524 113.72336592 371.63155094 113.72815675 368.76871914 C113.73925002 362.01417144 113.73969035 355.25967935 113.73364258 348.50512695 C113.72760192 341.53979164 113.73991641 334.57465828 113.76121265 327.60935742 C113.77883247 321.62622019 113.78482942 315.64314722 113.7815749 309.65998501 C113.77976251 306.08781279 113.78239373 302.51578464 113.79628944 298.94363594 C113.81120623 294.95998339 113.80189427 290.97658777 113.7902832 286.99291992 C113.79792694 285.81093521 113.80557068 284.6289505 113.81344604 283.41114807 C113.80643173 282.32462952 113.79941742 281.23811096 113.79219055 280.1186676 C113.79235829 279.17718148 113.79252604 278.23569536 113.79269886 277.26567936 C113.3376594 274.08575108 112.30207953 272.23181253 110.41796875 269.64697266 C106.81361739 267.24407175 105.19007618 267.39159466 100.90274048 267.37954712 C100.238086 267.37501601 99.57343152 267.37048489 98.88863599 267.36581647 C96.65696961 267.35313569 94.42554613 267.35479518 92.19384766 267.35644531 C90.59562363 267.35046233 88.99740249 267.34365732 87.39918518 267.33609009 C83.05410895 267.31839907 78.70911146 267.3137334 74.3640027 267.31245852 C70.73822106 267.3105608 67.11245782 267.30320471 63.48668325 267.29611433 C54.93284448 267.27982088 46.37904782 267.27494623 37.82519531 267.27636719 C28.99839955 267.2775688 20.17184824 267.25646538 11.34511435 267.22487986 C3.76965515 267.19873684 -3.80572412 267.18799906 -11.38122809 267.18927801 C-15.90695318 267.18978824 -20.43246112 267.18407161 -24.95814133 267.16292191 C-29.21487683 267.14357274 -33.4711873 267.14339207 -37.7279377 267.15795517 C-39.29002693 267.16004854 -40.85214253 267.15531095 -42.41418648 267.14323425 C-44.54757038 267.12780903 -46.67948373 267.13706958 -48.81283569 267.15249634 C-50.00634832 267.1514068 -51.19986095 267.15031727 -52.42954063 267.14919472 C-56.21690559 267.74721925 -57.86879169 268.99122109 -60.58203125 271.64697266 Z " fill="#000000" transform="translate(311.58203125,-0.64697265625)"/>
<path d="M0 0 C0.73427719 -0.00807175 1.46855438 -0.01614349 2.2250824 -0.02445984 C3.78617988 -0.0383228 5.34730796 -0.04903501 6.90844727 -0.05688477 C9.27485741 -0.0739751 11.63982507 -0.117822 14.00585938 -0.16210938 C23.47411123 -0.259945 30.10146856 0.12145438 37.49609375 6.67578125 C38.23859375 7.52140625 38.98109375 8.36703125 39.74609375 9.23828125 C40.82890625 10.44484375 40.82890625 10.44484375 41.93359375 11.67578125 C45.47049849 16.67623278 46.0046386 21.39988607 45.93359375 27.42578125 C45.92714844 28.63621094 45.92070312 29.84664063 45.9140625 31.09375 C45.74609375 34.23828125 45.74609375 34.23828125 44.74609375 37.23828125 C58.11109375 37.73328125 58.11109375 37.73328125 71.74609375 38.23828125 C71.74609375 30.64828125 71.74609375 23.05828125 71.74609375 15.23828125 C68.65234375 15.36203125 68.65234375 15.36203125 65.49609375 15.48828125 C59.40296297 15.73200648 59.40296297 15.73200648 56.35546875 13.44140625 C54.01511785 10.23762491 54.19374334 8.10473412 54.74609375 4.23828125 C56.17382812 2.05493164 56.17382812 2.05493164 58.74609375 0.23828125 C61.96194903 -0.37066164 65.13683695 -0.34597475 68.40234375 -0.328125 C69.3416272 -0.33432358 70.28091064 -0.34052216 71.24865723 -0.34690857 C73.23232996 -0.35400489 75.21606227 -0.35083601 77.19970703 -0.33813477 C80.23581394 -0.32426571 83.26884078 -0.3583456 86.3046875 -0.39648438 C88.23307367 -0.39743555 90.1614637 -0.39557683 92.08984375 -0.390625 C93.45091248 -0.41051231 93.45091248 -0.41051231 94.83947754 -0.43080139 C101.09605128 -0.33829669 101.09605128 -0.33829669 104.35351562 2.55102539 C106.25469965 6.21973726 105.83736693 8.30969781 104.74609375 12.23828125 C103.63671875 13.9375 103.63671875 13.9375 101.74609375 15.23828125 C98.390625 15.53125 98.390625 15.53125 94.55859375 15.42578125 C93.28628906 15.39871094 92.01398438 15.37164062 90.703125 15.34375 C89.23939453 15.29154297 89.23939453 15.29154297 87.74609375 15.23828125 C87.7560865 16.59678192 87.7560865 16.59678192 87.76628113 17.98272705 C87.82638647 26.51681634 87.87206525 35.05083455 87.90153027 43.58508682 C87.91718778 47.97266925 87.93842752 52.36007681 87.97241211 56.74755859 C88.00500265 60.98155181 88.02294612 65.21537681 88.03072548 69.44948578 C88.03626955 71.06503701 88.04709578 72.68057902 88.06328392 74.29605865 C88.0850546 76.5585776 88.0880609 78.82040101 88.08666992 81.08300781 C88.09666267 83.01493988 88.09666267 83.01493988 88.1068573 84.98590088 C87.72469006 88.43124127 87.1957716 89.83366278 84.74609375 92.23828125 C82.58984375 92.734375 82.58984375 92.734375 80.24609375 92.67578125 C79.47265625 92.67449219 78.69921875 92.67320312 77.90234375 92.671875 C75.2293071 92.13436219 74.36289262 91.41208704 72.74609375 89.23828125 C71.47222983 85.55540032 71.63259755 81.93135465 71.6484375 78.06640625 C71.64985245 77.38398865 71.6512674 76.70157104 71.65272522 75.99847412 C71.65830291 73.82836441 71.67085121 71.65835955 71.68359375 69.48828125 C71.68861164 68.01302233 71.69317404 66.53776178 71.69726562 65.0625 C71.70741227 61.45435462 71.72699176 57.8464347 71.74609375 54.23828125 C58.38109375 54.73328125 58.38109375 54.73328125 44.74609375 55.23828125 C45.07609375 56.22828125 45.40609375 57.21828125 45.74609375 58.23828125 C46.53422446 68.29017787 46.04406245 76.12718334 39.43359375 83.98828125 C28.344688 93.2720163 18.9119192 92.94815001 4.74609375 92.23828125 C-5.53958887 90.96870955 -15.64472135 86.356551 -23.25390625 79.23828125 C-25.73429532 75.51769765 -25.71727828 73.64031554 -25.25390625 69.23828125 C-23.75390625 66.80078125 -23.75390625 66.80078125 -21.25390625 65.23828125 C-17.15001032 64.5542986 -14.78477439 64.30809661 -11.203125 66.484375 C-9.90585814 67.49447987 -8.63673209 68.5423415 -7.40625 69.6328125 C-2.01409309 73.65491139 3.71441557 74.85378379 10.24609375 75.61328125 C11.32697266 75.77376953 11.32697266 75.77376953 12.4296875 75.9375 C17.78348271 76.5861515 20.98109574 75.77439271 25.74609375 73.23828125 C28.68030305 70.68267961 28.74623323 69.23718281 29.24609375 65.30078125 C29.12802681 61.78501005 28.74344488 61.23500502 26.37109375 58.30078125 C22.34002793 55.13351525 20.26603485 55.11796261 15.1640625 55.09765625 C13.82615491 55.07932407 12.48826382 55.05975338 11.15039062 55.0390625 C9.04358151 55.01013157 6.937831 54.98828223 4.83081055 54.98779297 C2.79510876 54.98444595 0.7618397 54.94982984 -1.2734375 54.91015625 C-2.49135986 54.90081055 -3.70928223 54.89146484 -4.96411133 54.88183594 C-9.14477728 54.0640077 -10.6356631 52.5322883 -13.25390625 49.23828125 C-13.87890625 46.23828125 -13.87890625 46.23828125 -13.25390625 43.23828125 C-10.65393808 39.97276452 -9.18693355 38.41062477 -5.02758789 37.64233398 C-3.23889282 37.65695679 -3.23889282 37.65695679 -1.4140625 37.671875 C-0.10373047 37.66091797 1.20660156 37.64996094 2.55664062 37.63867188 C3.93231114 37.64864406 5.30796613 37.66103486 6.68359375 37.67578125 C9.38154707 37.69776764 12.07497805 37.69176536 14.7734375 37.671875 C15.96702881 37.68275146 17.16062012 37.69362793 18.39038086 37.70483398 C22.42921076 37.14330587 24.58440631 35.76345833 27.74609375 33.23828125 C29.35163319 30.02720238 29.22078431 26.72157397 28.74609375 23.23828125 C26.84614184 19.87682787 25.56463354 18.56817079 21.9831543 17.12475586 C18.70804204 16.22786072 15.96529934 15.96988277 12.578125 15.9296875 C11.43794922 15.90455078 10.29777344 15.87941406 9.12304688 15.85351562 C6.7350829 15.81818684 4.34705465 15.78697641 1.95898438 15.75976562 C0.25452148 15.72012695 0.25452148 15.72012695 -1.484375 15.6796875 C-2.51973389 15.66623291 -3.55509277 15.65277832 -4.62182617 15.63891602 C-7.25390625 15.23828125 -7.25390625 15.23828125 -9.05981445 13.89038086 C-10.88956942 11.35880206 -11.13003832 9.33497954 -11.25390625 6.23828125 C-8.27824026 0.15169172 -6.42006154 0.06647208 0 0 Z " fill="#000000" transform="translate(297.25390625,292.76171875)"/>
<path d="M0 0 C4.09134968 0.85236452 5.42217583 2.36493761 8 5.625 C8.36771245 8.4637401 8.48630804 10.64320151 8.3125 13.4375 C8.28994141 14.13037109 8.26738281 14.82324219 8.24414062 15.53710938 C8.18562661 17.23401573 8.0959548 18.92979861 8 20.625 C9.18553467 20.60928955 10.37106934 20.5935791 11.5925293 20.57739258 C16.000012 20.52300435 20.40746515 20.48861754 24.81518555 20.46020508 C26.72116081 20.44513872 28.62710152 20.42468176 30.53295898 20.39868164 C33.27596576 20.36220358 36.01851328 20.34525208 38.76171875 20.33203125 C40.03543587 20.30880547 40.03543587 20.30880547 41.33488464 20.28511047 C46.04713885 20.28377652 49.18305283 20.53567159 53 23.625 C54.54586876 26.71673752 54.29359521 29.21929552 54 32.625 C52.58984375 34.8359375 52.58984375 34.8359375 50 36.625 C46.73600816 37.11367354 43.5408411 37.00138385 40.25 36.875 C38.91775391 36.84792969 38.91775391 36.84792969 37.55859375 36.8203125 C35.37129152 36.77327374 33.18620184 36.70757009 31 36.625 C30.814375 37.924375 30.62875 39.22375 30.4375 40.5625 C27.93802924 52.95424238 22.10240743 64.28783275 15 74.625 C13.98911059 76.28508445 12.98598909 77.95000648 12 79.625 C19.61076772 87.18849587 28.81347357 92.13861277 38.390625 96.76953125 C39.11701172 97.12217041 39.84339844 97.47480957 40.59179688 97.83813477 C42.00381692 98.51651136 43.42167374 99.18290263 44.84570312 99.83569336 C47.59845269 101.14765821 49.66520334 102.15807026 51.46484375 104.66796875 C52.26675659 107.60051133 51.80290552 109.72218772 51 112.625 C49.32562171 115.32260947 48.07664523 115.60412387 44.98828125 116.4453125 C39.61783362 116.68727194 36.08957419 114.97798996 31.3125 112.6875 C29.98847168 112.0699585 29.98847168 112.0699585 28.63769531 111.43994141 C18.33526542 106.5227868 9.33195715 100.46684202 1 92.625 C-2.7606261 94.25460464 -5.59302341 96.6619202 -8.75 99.25 C-15.41456666 104.54199704 -22.5305234 108.26903633 -30.23925781 111.81152344 C-31.77229871 112.51980024 -33.29002967 113.26103134 -34.8046875 114.0078125 C-38.97199409 116.01429345 -42.27836265 117.39363864 -47 116.625 C-49.3125 115.5625 -49.3125 115.5625 -51 113.625 C-52.04707432 109.85553246 -52.47688276 107.65333656 -50.81030273 104.05957031 C-48.74250123 101.27870496 -47.25352942 100.41343781 -44.09765625 99.046875 C-42.64588989 98.39525391 -42.64588989 98.39525391 -41.16479492 97.73046875 C-40.1410376 97.28316406 -39.11728027 96.83585937 -38.0625 96.375 C-23.27549132 89.83016376 -23.27549132 89.83016376 -12 78.625 C-12.4125 78.08875 -12.825 77.5525 -13.25 77 C-21.21357864 66.19228612 -31 50.50638137 -31 36.625 C-31.55461914 36.64594727 -32.10923828 36.66689453 -32.68066406 36.68847656 C-35.20359023 36.77183548 -37.72622649 36.82371868 -40.25 36.875 C-41.55904297 36.92527344 -41.55904297 36.92527344 -42.89453125 36.9765625 C-49.34387829 37.07502581 -49.34387829 37.07502581 -52.57421875 34.859375 C-54.05421387 32.54004019 -54.56782047 31.34908262 -54.5625 28.625 C-54.58441406 27.965 -54.60632813 27.305 -54.62890625 26.625 C-53.60520166 23.36949224 -51.87228681 22.41271131 -49 20.625 C-45.84032714 20.08225794 -42.74088972 20.15857692 -39.54296875 20.234375 C-38.64000565 20.24003479 -37.73704254 20.24569458 -36.80671692 20.25152588 C-33.93309697 20.27385105 -31.06074072 20.32403982 -28.1875 20.375 C-26.2350441 20.39507001 -24.28256858 20.4133199 -22.33007812 20.4296875 C-17.55290122 20.47370318 -12.7766646 20.54270374 -8 20.625 C-8.08701172 19.08779297 -8.08701172 19.08779297 -8.17578125 17.51953125 C-8.22269957 16.15889989 -8.26819752 14.79821904 -8.3125 13.4375 C-8.35439453 12.76396484 -8.39628906 12.09042969 -8.43945312 11.39648438 C-8.53581607 7.44560348 -8.1466151 5.81041775 -5.66796875 2.67578125 C-3 0.625 -3 0.625 0 0 Z M-15 36.625 C-11.41655745 47.37532765 -7.32973511 57.13039733 -1 66.625 C-0.34 66.625 0.32 66.625 1 66.625 C10.17059459 52.47878175 10.17059459 52.47878175 14 36.625 C4.43 36.625 -5.14 36.625 -15 36.625 Z " fill="#000000" transform="translate(380,28.375)"/>
<path d="M0 0 C1.14275391 0.06574219 1.14275391 0.06574219 2.30859375 0.1328125 C5.59678112 1.21557784 6.58627066 3.05467747 8.5625 5.875 C9.6696979 8.36950892 10.64962703 10.79454936 11.56640625 13.35546875 C11.84246201 14.10106552 12.11851776 14.84666229 12.40293884 15.61485291 C13.31908453 18.09426318 14.22216103 20.57821646 15.125 23.0625 C16.44517487 26.65904562 17.77127955 30.25339392 19.09765625 33.84765625 C19.62215866 35.27304718 19.62215866 35.27304718 20.15725708 36.72723389 C22.96330839 44.32675055 25.87237375 51.88354769 28.80859375 59.43359375 C30.12659994 62.83829775 31.44378051 66.24332043 32.76095581 69.64834595 C33.62693394 71.87835791 34.4976263 74.10654508 35.37307739 76.33285522 C36.60548748 79.4696296 37.82003376 82.61280541 39.03125 85.7578125 C39.40442856 86.69366684 39.77760712 87.62952118 40.16209412 88.59373474 C41.98362487 93.37432564 43.22851783 96.8011289 41.5625 101.875 C39.41168889 104.90206748 38.30299726 105.74895791 34.625 106.375 C30.72643045 105.73849885 29.37787067 104.64665373 26.5625 101.875 C25.16103608 99.26177602 24.20055896 96.55402351 23.25 93.75 C22.98638672 93.02167969 22.72277344 92.29335937 22.45117188 91.54296875 C20.5625 86.23506494 20.5625 86.23506494 20.5625 83.875 C6.0425 83.875 -8.4775 83.875 -23.4375 83.875 C-23.7675 85.855 -24.0975 87.835 -24.4375 89.875 C-25.32808583 92.31744497 -26.2902515 94.73466769 -27.3125 97.125 C-27.56902344 97.74890625 -27.82554688 98.3728125 -28.08984375 99.015625 C-29.53845537 102.3932923 -30.30054371 103.7836958 -33.4375 105.875 C-37.12472891 106.3559429 -38.99824794 106.10417499 -42.3125 104.375 C-44.81696341 101.42857246 -44.7577504 99.76811293 -44.64997864 95.9950161 C-44.32629352 92.76543186 -43.33429488 89.99030201 -42.17773438 86.96606445 C-41.81662064 86.0054158 -41.81662064 86.0054158 -41.44821167 85.02536011 C-40.65501076 82.92469399 -39.84334129 80.83170876 -39.03125 78.73828125 C-38.46633465 77.25346485 -37.90259558 75.76820045 -37.33996582 74.28251648 C-35.8553775 70.37179836 -34.35502554 66.46731726 -32.85119629 62.56396484 C-31.3522814 58.66538435 -29.86807126 54.76122068 -28.3828125 50.85742188 C-26.10700385 44.87949897 -23.81930575 38.90627968 -21.5234375 32.93603516 C-19.6248653 27.99813423 -17.75114443 23.05253042 -15.9140625 18.09130859 C-15.54671997 17.10470749 -15.17937744 16.11810638 -14.80090332 15.10160828 C-14.1465576 13.33931846 -13.49845453 11.57469088 -12.85827637 9.8072052 C-11.50181037 6.16795534 -10.43041679 3.38812725 -7.4375 0.875 C-4.522531 -0.09665633 -2.99644689 -0.23243939 0 0 Z M-1.4375 27.875 C-4.75123719 35.07843346 -7.63672313 42.41984838 -10.43896484 49.83422852 C-11.19583595 51.83453073 -11.95903854 53.83234309 -12.72265625 55.83007812 C-13.20610857 57.10402275 -13.68919529 58.37810619 -14.171875 59.65234375 C-14.82494629 61.37312134 -14.82494629 61.37312134 -15.49121094 63.12866211 C-16.54608931 65.7060174 -16.54608931 65.7060174 -16.4375 67.875 C-6.5375 67.875 3.3625 67.875 13.5625 67.875 C12.74768025 62.77339949 12.74768025 62.77339949 11.25561523 58.07275391 C10.99542099 57.39250153 10.73522675 56.71224915 10.46714783 56.01138306 C10.18794998 55.29864227 9.90875214 54.58590149 9.62109375 53.8515625 C9.33396011 53.10538666 9.04682648 52.35921082 8.75099182 51.59042358 C7.83930874 49.22485577 6.91979089 46.8624255 6 44.5 C5.37773393 42.88952424 4.75598364 41.27884908 4.13476562 39.66796875 C2.61663629 35.73464658 1.09147647 31.80411764 -0.4375 27.875 C-0.7675 27.875 -1.0975 27.875 -1.4375 27.875 Z " fill="#000000" transform="translate(104.4375,140.125)"/>
</svg>
